<svg width="22" height="37" viewBox="0 0 22 37" fill="none" xmlns="http://www.w3.org/2000/svg">
<path d="M11.5662 0H13.4243C18.1605 0 22 3.82507 22 8.54352C22 13.262 18.1605 17.087 13.4243 17.087H11.7209C11.6354 17.087 11.5662 17.0181 11.5662 16.933V0Z" fill="#00D181"/>
<path d="M10.7201 0H5.77172C3.84731 0 2.28727 1.55419 2.28727 3.47137V17.0159C2.28727 19.3358 4.17501 21.2164 6.50367 21.2164C8.83232 21.2164 10.7201 19.3358 10.7201 17.0159V0Z" fill="#51575C"/>
<path d="M10.2327 26.2001H5.42029C2.42675 26.2001 0 28.6178 0 31.6001V31.9029C0 34.7179 2.29067 37 5.11634 37C7.94202 37 10.2327 34.7179 10.2327 31.9029V26.2001Z" fill="#6C63FF"/>
<path d="M10.709 23.4947C10.709 24.517 9.87708 25.3458 8.8509 25.3458H3.4196C2.39342 25.3458 1.56153 24.517 1.56153 23.4947C1.56153 22.4724 2.39342 21.6436 3.4196 21.6436H8.8509C9.87708 21.6436 10.709 22.4724 10.709 23.4947Z" fill="#FA7E73"/>
</svg>
