<svg width="24" height="24" viewBox="0 0 24 24" fill="none" xmlns="http://www.w3.org/2000/svg">
<path d="M13 16C13.7957 16 14.5587 16.3161 15.1213 16.8787C15.6839 17.4413 16 18.2044 16 19C16 19.7956 15.6839 20.5587 15.1213 21.1213C14.5587 21.6839 13.7957 22 13 22H7C6.05397 21.9998 5.12741 21.7312 4.32792 21.2255C3.52844 20.7197 2.88885 19.9975 2.48343 19.1427C2.07801 18.288 1.9234 17.3358 2.03756 16.3966C2.15172 15.4575 2.52996 14.5701 3.12836 13.8373C3.72676 13.1046 4.52075 12.5567 5.41812 12.2572C6.31549 11.9577 7.27942 11.9189 8.19794 12.1454C9.11647 12.3718 9.9519 12.8542 10.6072 13.5366C11.2625 14.2189 11.7108 15.0731 11.9 16H13Z" stroke="#6C788F" stroke-width="1.5" stroke-linecap="round" stroke-linejoin="round"/>
<path d="M18.376 14.512C19.2346 14.1414 19.9947 13.5752 20.5956 12.8587C21.1965 12.1421 21.6216 11.295 21.837 10.385C21.985 9.76 21.178 9.415 20.589 9.671C19.8531 9.98932 19.0385 10.0791 18.2509 9.9288C17.4634 9.77847 16.7392 9.39491 16.1723 8.8279C15.6054 8.2609 15.2219 7.5366 15.0718 6.749C14.9216 5.9614 15.0115 5.14684 15.33 4.411C15.585 3.822 15.24 3.016 14.614 3.163C13.38 3.45619 12.2707 4.13287 11.4453 5.09588C10.6199 6.05889 10.1209 7.25869 10.02 8.523" stroke="#6C788F" stroke-width="1.5" stroke-linecap="round" stroke-linejoin="round"/>
</svg>
