<svg width="19" height="20" viewBox="0 0 19 20" fill="none" xmlns="http://www.w3.org/2000/svg">
<g clip-path="url(#clip0_142_2005)">
<path d="M14.504 4.99854H4.50122V15.0013H14.504V4.99854Z" fill="white"/>
<path d="M14.504 19.5027L19.0054 15.0014L16.7547 14.6174L14.504 15.0014L14.0933 17.0601L14.504 19.5027Z" fill="#EA4335"/>
<path d="M0 15.0014V18.0023C0 18.8313 0.671427 19.5027 1.50039 19.5027H4.50133L4.96347 17.2521L4.50133 15.0014L2.04895 14.6174L0 15.0014Z" fill="#188038"/>
<path d="M19.0054 4.99864V1.99771C19.0054 1.16874 18.3339 0.497314 17.505 0.497314H14.504C14.2302 1.61359 14.0933 2.43508 14.0933 2.96179C14.0933 3.48845 14.2302 4.1674 14.504 4.99864C15.4996 5.28372 16.2498 5.42626 16.7547 5.42626C17.2596 5.42626 18.0098 5.28377 19.0054 4.99864Z" fill="#1967D2"/>
<path d="M19.0055 4.99854H14.5042V15.0013H19.0055V4.99854Z" fill="#FBBC04"/>
<path d="M14.504 15.0015H4.50122V19.5028H14.504V15.0015Z" fill="#34A853"/>
<path d="M14.5041 0.497314H1.50047C0.671427 0.497314 0 1.16874 0 1.99771V15.0015H4.50133V4.99864H14.5041V0.497314Z" fill="#4285F4"/>
<path d="M6.55308 12.7585C6.17921 12.5059 5.92033 12.1371 5.77905 11.6493L6.64684 11.2918C6.72554 11.5918 6.86308 11.8244 7.05947 11.9895C7.2545 12.1545 7.49207 12.2358 7.76965 12.2358C8.05345 12.2358 8.29725 12.1495 8.50107 11.9769C8.70493 11.8044 8.80745 11.5843 8.80745 11.318C8.80745 11.0454 8.69993 10.8229 8.48488 10.6503C8.26981 10.4778 7.99972 10.3915 7.67715 10.3915H7.17573V9.53257H7.62585C7.90341 9.53257 8.13721 9.45752 8.32727 9.3074C8.51732 9.15744 8.61235 8.95231 8.61235 8.69099C8.61235 8.45847 8.52735 8.27339 8.35734 8.13463C8.18733 7.9958 7.97218 7.92579 7.71085 7.92579C7.45577 7.92579 7.25324 7.99335 7.1032 8.12958C6.95321 8.26621 6.84046 8.43877 6.77558 8.631L5.91662 8.27339C6.03036 7.95081 6.23919 7.66573 6.54551 7.4194C6.85182 7.17307 7.24322 7.04932 7.71835 7.04932C8.06973 7.04932 8.38607 7.11688 8.66618 7.25311C8.94621 7.38941 9.16626 7.5782 9.32506 7.8183C9.48393 8.05958 9.56262 8.32966 9.56262 8.62974C9.56262 8.93605 9.4889 9.19493 9.34139 9.40748C9.19387 9.62003 9.01251 9.78254 8.79743 9.89635V9.94758C9.07513 10.0621 9.31636 10.2501 9.49514 10.4915C9.67643 10.7353 9.76775 11.0267 9.76775 11.3668C9.76775 11.7068 9.68141 12.0107 9.50887 12.277C9.33634 12.5434 9.09759 12.7534 8.79491 12.906C8.49112 13.0585 8.14976 13.1361 7.77091 13.1361C7.33201 13.1373 6.92695 13.011 6.55308 12.7585ZM11.8832 8.45216L10.9305 9.14111L10.4541 8.41845L12.1633 7.18555H12.8185V13.001H11.8832V8.45216Z" fill="#4285F4"/>
</g>
<defs>
<clipPath id="clip0_142_2005">
<rect width="19.0055" height="19.0055" fill="white" transform="translate(0 0.497314)"/>
</clipPath>
</defs>
</svg>
