<svg width="19" height="20" viewBox="0 0 19 20" fill="none" xmlns="http://www.w3.org/2000/svg">
<g clip-path="url(#clip0_142_1924)">
<path d="M4.32011 14.7526V7.41083L2.04322 5.32781L0.00146484 4.17188V13.457C0.00146484 14.1738 0.582288 14.7526 1.29709 14.7526H4.32011Z" fill="#4285F4"/>
<path d="M14.6853 14.7525H17.7083C18.4253 14.7525 19.004 14.1716 19.004 13.4569V4.17188L16.6913 5.49585L14.6853 7.41075V14.7525Z" fill="#34A853"/>
<path d="M4.32032 7.41083L4.0105 4.5422L4.32032 1.79663L9.50267 5.68343L14.685 1.79663L15.0316 4.39397L14.685 7.41083L9.50267 11.2976L4.32032 7.41083Z" fill="#EA4335"/>
<path d="M14.6853 1.79655V7.41075L19.004 4.1718V2.44433C19.004 0.842148 17.175 -0.0712098 15.8946 0.889653L14.6853 1.79655Z" fill="#FBBC04"/>
<path d="M0.00146484 4.17184L1.98769 5.66156L4.32011 7.41079V1.79659L3.11082 0.889687C1.82818 -0.0712499 0.00146484 0.842182 0.00146484 2.44429V4.17184Z" fill="#C5221F"/>
</g>
<defs>
<clipPath id="clip0_142_1924">
<rect width="19.0055" height="19.0055" fill="white" transform="translate(0 0.497314)"/>
</clipPath>
</defs>
</svg>
