<svg width="19" height="20" viewBox="0 0 19 20" fill="none" xmlns="http://www.w3.org/2000/svg">
<path d="M10.2574 2H11.1019C13.2548 2 15 3.75746 15 5.9254C15 8.09334 13.2548 9.85081 11.1019 9.85081H10.3277C10.2888 9.85081 10.2574 9.81911 10.2574 9.78V2Z" fill="#00D181"/>
<path d="M9.87276 2H7.62351C6.74878 2 6.03967 2.71409 6.03967 3.59495V9.81809C6.03967 10.884 6.89773 11.7481 7.95621 11.7481C9.01469 11.7481 9.87276 10.884 9.87276 9.81809V2Z" fill="#51575C"/>
<path d="M9.65122 14.0379H7.46377C6.10307 14.0379 5 15.1487 5 16.519V16.6581C5 17.9515 6.04121 19 7.32561 19C8.61001 19 9.65122 17.9515 9.65122 16.6581V14.0379Z" fill="#6C63FF"/>
<path d="M9.86771 12.7949C9.86771 13.2646 9.48958 13.6454 9.02314 13.6454H6.55436C6.08792 13.6454 5.70978 13.2646 5.70978 12.7949C5.70978 12.3251 6.08792 11.9444 6.55436 11.9444H9.02314C9.48958 11.9444 9.86771 12.3251 9.86771 12.7949Z" fill="#FA7E73"/>
</svg>
