<svg width="19" height="20" viewBox="0 0 19 20" fill="none" xmlns="http://www.w3.org/2000/svg">
<g clip-path="url(#clip0_142_1993)">
<path d="M4.04679 12.4822C4.04679 13.5706 3.15918 14.4595 2.07067 14.4595C0.98216 14.4595 0.0935059 13.5706 0.0935059 12.4822C0.0935059 11.3938 0.982457 10.5049 2.07082 10.5049H4.04694L4.04679 12.4822ZM5.04294 12.4822C5.04294 11.3938 5.9319 10.5049 7.02026 10.5049C8.10861 10.5049 8.99757 11.3937 8.99757 12.4822V17.4318C8.99757 18.5201 8.10876 19.4091 7.02026 19.4091C5.9319 19.4091 5.04294 18.5201 5.04294 17.4318V12.4822Z" fill="#DE1C59"/>
<path d="M7.02026 4.54411C5.9319 4.54411 5.04294 3.65649 5.04294 2.56798C5.04294 1.47947 5.9319 0.59082 7.02026 0.59082C8.10861 0.59082 8.99757 1.47977 8.99757 2.56813V4.54425L7.02026 4.54411ZM7.02026 5.54026C8.10861 5.54026 8.99757 6.42921 8.99757 7.51757C8.99757 8.60593 8.10876 9.49488 7.02026 9.49488H2.07067C0.982308 9.49488 0.0935059 8.60608 0.0935059 7.51757C0.0935059 6.42921 0.982457 5.54026 2.07082 5.54026H7.02026Z" fill="#35C5F0"/>
<path d="M14.9586 7.51757C14.9586 6.42921 15.8462 5.54026 16.9347 5.54026C18.0232 5.54026 18.912 6.42921 18.912 7.51757C18.912 8.60593 18.0231 9.49488 16.9347 9.49488H14.9586V7.51757ZM13.9624 7.51757C13.9624 8.60593 13.0735 9.49488 11.9851 9.49488C10.8968 9.49488 10.0078 8.60608 10.0078 7.51757V2.56798C10.0078 1.47962 10.8966 0.59082 11.9851 0.59082C13.0735 0.59082 13.9624 1.47977 13.9624 2.56813V7.51757Z" fill="#2EB57D"/>
<path d="M11.9851 15.4557C13.0735 15.4557 13.9624 16.3433 13.9624 17.4318C13.9624 18.5203 13.0735 19.4091 11.9851 19.4091C10.8968 19.4091 10.0078 18.5201 10.0078 17.4318V15.4557H11.9851ZM11.9851 14.4595C10.8968 14.4595 10.0078 13.5706 10.0078 12.4822C10.0078 11.3938 10.8966 10.5049 11.9851 10.5049H16.9347C18.0231 10.5049 18.912 11.3937 18.912 12.4822C18.912 13.5706 18.0231 14.4595 16.9347 14.4595H11.9851Z" fill="#EBB02E"/>
</g>
<defs>
<clipPath id="clip0_142_1993">
<rect width="19.0055" height="19.0055" fill="white" transform="translate(0 0.497314)"/>
</clipPath>
</defs>
</svg>
