<svg width="124" height="108" viewBox="0 0 124 108" fill="none" xmlns="http://www.w3.org/2000/svg">
<path d="M56.08 43.1905L74 27L122 30.8095L101.84 48.5873L118.16 66.6825L105.68 70.2937V95.8889L71.76 107L18.64 99.6984L20.24 70.9153L6.16 69.2222L20.24 51.4444L2 33.9841L38.48 27L56.08 43.1905Z" fill="#F6F7F8"/>
<path d="M56.08 43.1905L74 27L122 30.8095L101.84 48.5873M56.08 43.1905L101.84 48.5873M56.08 43.1905L20.24 51.4444M56.08 43.1905L38.48 27L2 33.9841L20.24 51.4444M101.84 48.5873L118.16 66.6825L105.68 70.2937M101.84 48.5873L74 57.1587M74 57.1587L87.44 75.5714L105.68 70.2937M74 57.1587L20.24 51.4444M74 57.1587L72.9763 58.412M20.24 51.4444L6.16 69.2222L20.24 70.9153M20.24 70.9153L58.96 75.5714L72.9763 58.412M20.24 70.9153L18.64 99.6984L71.76 107M71.76 107L72.9763 58.412M71.76 107L105.68 95.8889V70.2937" stroke="#6C788F"/>
<path d="M40.662 89.8843C40.662 90.6003 40.0781 91.1851 39.362 91.1851C38.646 91.1851 38.0614 90.6003 38.0614 89.8843C38.0614 89.1683 38.6462 88.5835 39.3621 88.5835H40.6621L40.662 89.8843ZM41.3174 89.8843C41.3174 89.1683 41.9022 88.5835 42.6181 88.5835C43.3341 88.5835 43.9189 89.1682 43.9189 89.8843V93.1404C43.9189 93.8564 43.3342 94.4412 42.6181 94.4412C41.9022 94.4412 41.3174 93.8564 41.3174 93.1404V89.8843Z" fill="#DE1C59"/>
<path d="M42.6178 84.6622C41.9018 84.6622 41.317 84.0783 41.317 83.3622C41.317 82.6461 41.9018 82.0615 42.6178 82.0615C43.3338 82.0615 43.9186 82.6463 43.9186 83.3623V84.6623L42.6178 84.6622ZM42.6178 85.3175C43.3338 85.3175 43.9186 85.9023 43.9186 86.6183C43.9186 87.3343 43.3339 87.9191 42.6178 87.9191H39.3617C38.6457 87.9191 38.061 87.3344 38.061 86.6183C38.061 85.9023 38.6458 85.3175 39.3618 85.3175H42.6178Z" fill="#35C5F0"/>
<path d="M47.8402 86.6183C47.8402 85.9023 48.4241 85.3175 49.1402 85.3175C49.8563 85.3175 50.441 85.9023 50.441 86.6183C50.441 87.3343 49.8562 87.9191 49.1402 87.9191H47.8402V86.6183ZM47.1849 86.6183C47.1849 87.3343 46.6001 87.9191 45.8841 87.9191C45.1681 87.9191 44.5833 87.3344 44.5833 86.6183V83.3622C44.5833 82.6462 45.168 82.0615 45.8841 82.0615C46.6001 82.0615 47.1849 82.6463 47.1849 83.3623V86.6183Z" fill="#2EB57D"/>
<path d="M45.8841 91.8404C46.6001 91.8404 47.1849 92.4243 47.1849 93.1404C47.1849 93.8565 46.6001 94.4412 45.8841 94.4412C45.1681 94.4412 44.5833 93.8564 44.5833 93.1404V91.8404H45.8841ZM45.8841 91.1851C45.1681 91.1851 44.5833 90.6003 44.5833 89.8843C44.5833 89.1683 45.168 88.5835 45.8841 88.5835H49.1402C49.8562 88.5835 50.441 89.1682 50.441 89.8843C50.441 90.6003 49.8562 91.1851 49.1402 91.1851H45.8841Z" fill="#EBB02E"/>
<path d="M78.9324 43.0226C76.4721 41.7956 73.4773 42.7768 72.2235 45.2305L69.1475 51.2509C68.5233 52.4728 69.0078 53.9692 70.2295 54.5936C71.4515 55.218 72.9486 54.734 73.573 53.5121L78.9324 43.0226Z" fill="#00D181" stroke="#464646" stroke-width="0.1"/>
<path d="M70.5569 38.7432C72.9929 40.0178 73.9527 43.0195 72.6991 45.4733L69.6231 51.4938C68.9987 52.7156 67.5023 53.1998 66.2804 52.5758C65.0584 51.9514 64.5733 50.4546 65.1975 49.2326L70.5569 38.7432Z" fill="#00D181" stroke="#464646" stroke-width="0.1"/>
<path d="M51.6113 41.068C50.0093 41.926 49.3878 43.9144 50.2251 45.5343L52.2959 49.5405C52.7121 50.3454 53.7026 50.6602 54.5076 50.2441C55.3123 49.8279 55.6276 48.8382 55.2117 48.0333L51.6113 41.068Z" fill="#6C63FF" stroke="#464646" stroke-width="0.1"/>
<path d="M46.0677 43.9336C47.6941 43.1229 49.6757 43.7658 50.513 45.3856L52.5838 49.3918C52.9998 50.1968 52.6838 51.1869 51.8788 51.603C51.0739 52.0188 50.0841 51.7038 49.668 50.899L46.0677 43.9336Z" fill="#6C63FF" stroke="#464646" stroke-width="0.1"/>
<path d="M46.5136 8.52771C45.5239 9.14877 45.2059 10.4495 45.8075 11.4582L47.9003 14.9675C48.1983 15.4671 48.8454 15.6306 49.345 15.3328C49.8447 15.0348 50.0082 14.3877 49.7103 13.8881L46.5136 8.52771Z" fill="#00D181" stroke="#464646" stroke-width="0.1"/>
<path d="M43.0454 10.5961C44.0622 10.0205 45.3577 10.359 45.9593 11.3678L48.0521 14.877C48.35 15.3766 48.1864 16.0237 47.6868 16.3217C47.1872 16.6197 46.5401 16.4561 46.2421 15.9564L43.0454 10.5961Z" fill="#00D181" stroke="#464646" stroke-width="0.1"/>
<path d="M96.0808 2.00358C95.0756 1.46745 93.8217 1.82918 93.2594 2.82693L91.2144 6.45541C90.936 6.94945 91.1102 7.57581 91.6042 7.85432C92.0983 8.13278 92.7251 7.95781 93.0036 7.46373L96.0808 2.00358Z" fill="#FA7E73" stroke="#464646" stroke-width="0.1"/>
<path d="M92.6492 0.0697718C93.6284 0.652023 93.9684 1.91201 93.406 2.90977L91.3611 6.53824C91.0827 7.03227 90.4566 7.20764 89.9626 6.92932C89.4685 6.65085 89.2935 6.02402 89.572 5.52992L92.6492 0.0697718Z" fill="#FA7E73" stroke="#464646" stroke-width="0.1"/>
<path d="M71.0232 21.5347C69.7404 20.8422 68.1349 21.3015 67.4161 22.5766L66.3353 24.4942C65.9787 25.1271 66.2026 25.9293 66.8355 26.286C67.4684 26.6426 68.2706 26.4187 68.6273 25.7859L71.0232 21.5347Z" fill="#51575C" stroke="#464646" stroke-width="0.1"/>
<path d="M66.6492 19.0698C67.9059 19.8085 68.3444 21.4198 67.626 22.6951L66.5452 24.6127C66.1885 25.2456 65.3863 25.4695 64.7534 25.1128C64.1207 24.7561 63.8966 23.9538 64.2533 23.321L66.6492 19.0698Z" fill="#51575C" stroke="#464646" stroke-width="0.1"/>
<path d="M88.1376 89.4423L87.7532 84.9366L86.3834 83.7658L85.1924 83.1528L85.6786 88.8511C85.7162 89.2911 86.0681 89.6188 86.4638 89.5851L88.1376 89.4423Z" fill="#4285F4"/>
<path d="M93.8764 88.9526L95.5502 88.8097C95.9472 88.7759 96.2372 88.392 96.1997 87.9534L95.7135 82.2551L94.5024 83.1769L93.492 84.4469L93.8764 88.9526Z" fill="#34A853"/>
<path d="M87.7532 84.9366L87.4317 83.1907L87.4594 81.4911L90.5323 83.6316L93.1981 81.0014L93.526 82.5791L93.492 84.4469L90.8263 87.0771L87.7532 84.9366Z" fill="#EA4335"/>
<path d="M93.1981 81.0014L93.492 84.4469L95.7135 82.2551L95.6231 81.1949C95.5392 80.2116 94.4787 79.7375 93.8201 80.3877L93.1981 81.0014Z" fill="#FBBC04"/>
<path d="M85.1924 83.1528L87.7532 84.9366L87.4594 81.4911L86.7421 80.9916C85.9816 80.4625 85.0181 81.1094 85.102 82.0926L85.1924 83.1528Z" fill="#C5221F"/>
</svg>
