<svg width="168" height="122" viewBox="0 0 168 122" fill="none" xmlns="http://www.w3.org/2000/svg">
<path d="M47.4207 64.6446L48.8887 64.7081C52.6304 64.8699 55.5325 68.0352 55.3706 71.778C55.2088 75.5207 52.0443 78.4237 48.3026 78.2619L46.9568 78.2037C46.8893 78.2007 46.837 78.1437 46.8399 78.0761L47.4207 64.6446Z" fill="#00D181"/>
<path d="M46.7523 64.6157L42.843 64.4467C41.3227 64.3809 40.0369 65.5605 39.9711 67.0812L39.5065 77.8249C39.427 79.6651 40.8538 81.2214 42.6935 81.3009C44.5332 81.3805 46.089 79.9532 46.1686 78.113L46.7523 64.6157Z" fill="#394549"/>
<path d="M45.4686 85.3815L41.6667 85.2171C39.3017 85.1148 37.3016 86.9496 37.1993 89.3152L37.1889 89.5554C37.0923 91.7884 38.8237 93.6768 41.0561 93.7733C43.2884 93.8699 45.1764 92.1379 45.2729 89.905L45.4686 85.3815Z" fill="#6C63FF"/>
<path d="M45.9376 83.2518C45.9026 84.0627 45.2169 84.6917 44.4062 84.6566L40.1154 84.471C39.3047 84.436 38.6759 83.7502 38.711 82.9393C38.746 82.1283 39.4317 81.4993 40.2424 81.5344L44.5332 81.72C45.3439 81.755 45.9727 82.4408 45.9376 83.2518Z" fill="#FA7E73"/>
<path d="M119.878 64.5591L121.102 64.5064C124.221 64.3718 126.858 66.7918 126.993 69.9116C127.128 73.0314 124.708 75.6696 121.589 75.8041L120.468 75.8525C120.411 75.855 120.364 75.8113 120.361 75.755L119.878 64.5591Z" fill="#00D181"/>
<path d="M119.321 64.5832L116.063 64.7237C114.795 64.7784 113.812 65.8503 113.867 67.118L114.253 76.0734C114.319 77.6073 115.616 78.7972 117.15 78.731C118.683 78.6649 119.873 77.3678 119.806 75.8339L119.321 64.5832Z" fill="#394549"/>
<path d="M119.747 81.9203L116.578 82.057C114.607 82.142 113.078 83.8095 113.163 85.7814L113.172 85.9816C113.252 87.8429 114.825 89.2867 116.686 89.2064C118.547 89.1261 119.99 87.5522 119.91 85.6909L119.747 81.9203Z" fill="#6C63FF"/>
<path d="M119.984 80.1179C120.013 80.7939 119.489 81.3655 118.813 81.3947L115.237 81.5489C114.561 81.5781 113.989 81.0538 113.96 80.3778C113.931 79.7018 114.455 79.1302 115.131 79.1011L118.708 78.9468C119.383 78.9177 119.955 79.442 119.984 80.1179Z" fill="#FA7E73"/>
<path d="M144.152 25.3023L55.0167 15.2717L35.51 21.3226L33.8844 21.8269M144.152 25.3023V100.396L89.1535 121M144.152 25.3023L89.1535 44.2792M89.1535 121L0.831299 107.174V32.0798M89.1535 121V44.2792M0.831299 32.0798L89.1535 44.2792M0.831299 32.0798L33.8844 21.8269M33.8844 21.8269L121.936 32.0798" stroke="#6C788F" stroke-width="1.17476"/>
<path d="M114.587 35.8301L27.0676 23.4952L41.5563 18.9919L128.097 30.9353V38.7958C128.097 39.1131 127.739 39.2986 127.48 39.1161L122.81 35.8301V43.9002C122.81 44.2721 122.341 44.4345 122.111 44.1421L118.503 39.5502L115.297 44.0381C115.076 44.3481 114.587 44.1914 114.587 43.8105V35.8301Z" fill="#6C63FF"/>
<path d="M114.587 35.8301L27.0676 23.4952L41.5563 18.9919L128.097 30.9353M114.587 35.8301V43.8105C114.587 44.1914 115.076 44.3481 115.297 44.0381L118.503 39.5502L122.111 44.1421C122.341 44.4345 122.81 44.2721 122.81 43.9002V35.8301L127.48 39.1161C127.739 39.2986 128.097 39.1131 128.097 38.7958V30.9353M114.587 35.8301L128.097 30.9353" stroke="#8780FC" stroke-width="0.391586"/>
<g filter="url(#filter0_df_375_1828)">
<path d="M138.919 4.23866L144.642 22.0346L160.212 14.4964L146.451 25.2716L158.439 39.156L144.211 28.0196L136.05 44.1388L141.017 26.4809L123.986 22.5587L141.283 22.782L138.919 4.23866Z" fill="white"/>
<path d="M144.166 22.1877L144.342 22.7356L144.86 22.4844L156.229 16.9797L146.143 24.878L145.731 25.2009L146.073 25.5979L154.709 35.6023L144.519 27.6255L144.041 27.2507L143.765 27.7933L137.919 39.339L141.498 26.616L141.641 26.111L141.13 25.9937L128.645 23.1188L141.277 23.2818L141.853 23.2897L141.78 22.7187L140.098 9.53975L144.166 22.1877Z" stroke="#F2F2F7"/>
</g>
<defs>
<filter id="filter0_df_375_1828" x="122.419" y="2.67243" width="39.359" height="43.0328" filterUnits="userSpaceOnUse" color-interpolation-filters="sRGB">
<feFlood flood-opacity="0" result="BackgroundImageFix"/>
<feColorMatrix in="SourceAlpha" type="matrix" values="0 0 0 0 0 0 0 0 0 0 0 0 0 0 0 0 0 0 127 0" result="hardAlpha"/>
<feOffset/>
<feGaussianBlur stdDeviation="0.783172"/>
<feComposite in2="hardAlpha" operator="out"/>
<feColorMatrix type="matrix" values="0 0 0 0 0 0 0 0 0 0 0 0 0 0 0 0 0 0 0.07 0"/>
<feBlend mode="normal" in2="BackgroundImageFix" result="effect1_dropShadow_375_1828"/>
<feBlend mode="normal" in="SourceGraphic" in2="effect1_dropShadow_375_1828" result="shape"/>
<feGaussianBlur stdDeviation="0.783172" result="effect2_foregroundBlur_375_1828"/>
</filter>
</defs>
</svg>
