<svg width="20" height="20" viewBox="0 0 20 20" fill="none" xmlns="http://www.w3.org/2000/svg">
<path d="M11.3211 2.07331C11.3211 1.72293 11.1819 1.3869 10.9342 1.13914C10.6864 0.891386 10.3504 0.752197 10 0.752197C9.64963 0.752197 9.3136 0.891386 9.06584 1.13914C8.81808 1.3869 8.6789 1.72293 8.6789 2.07331V8.6789H2.07331C1.72293 8.6789 1.3869 8.81808 1.13914 9.06584C0.891386 9.3136 0.752197 9.64963 0.752197 10C0.752197 10.3504 0.891386 10.6864 1.13914 10.9342C1.3869 11.1819 1.72293 11.3211 2.07331 11.3211H8.6789V17.9267C8.6789 18.2771 8.81808 18.6131 9.06584 18.8609C9.3136 19.1086 9.64963 19.2478 10 19.2478C10.3504 19.2478 10.6864 19.1086 10.9342 18.8609C11.1819 18.6131 11.3211 18.2771 11.3211 17.9267V11.3211H17.9267C18.2771 11.3211 18.6131 11.1819 18.8609 10.9342C19.1086 10.6864 19.2478 10.3504 19.2478 10C19.2478 9.64963 19.1086 9.3136 18.8609 9.06584C18.6131 8.81808 18.2771 8.6789 17.9267 8.6789H11.3211V2.07331Z" fill="#6C788F"/>
</svg>
