<svg width="18" height="18" viewBox="0 0 18 18" fill="none" xmlns="http://www.w3.org/2000/svg">
<path d="M16.9264 8.00896C16.6841 6.2653 15.8752 4.64968 14.6243 3.41097C13.3735 2.17226 11.75 1.37918 10.0041 1.1539C8.25814 0.92862 6.48656 1.28363 4.96223 2.16425C3.43791 3.04487 2.24541 4.40225 1.56842 6.02728M1.073 2.06393V6.02728H5.03635M1.073 9.99063C1.31532 11.7343 2.12421 13.3499 3.37507 14.5886C4.62593 15.8273 6.24937 16.6204 7.99531 16.8457C9.74125 17.071 11.5128 16.716 13.0372 15.8353C14.5615 14.9547 15.754 13.5973 16.431 11.9723M16.9264 15.9357V11.9723H12.963" stroke="#51575C" stroke-width="1.98167" stroke-linecap="round" stroke-linejoin="round"/>
</svg>
