<svg width="20" height="20" viewBox="0 0 20 20" fill="none" xmlns="http://www.w3.org/2000/svg">
<path d="M8.33325 9.16675V14.1667" stroke="#6C788F" stroke-width="2" stroke-linecap="round" stroke-linejoin="round"/>
<path d="M11.6667 9.16675V14.1667" stroke="#6C788F" stroke-width="2" stroke-linecap="round" stroke-linejoin="round"/>
<path d="M15.8334 5V16.6667C15.8334 17.1087 15.6578 17.5326 15.3453 17.8452C15.0327 18.1577 14.6088 18.3333 14.1667 18.3333H5.83341C5.39139 18.3333 4.96746 18.1577 4.6549 17.8452C4.34234 17.5326 4.16675 17.1087 4.16675 16.6667V5" stroke="#6C788F" stroke-width="2" stroke-linecap="round" stroke-linejoin="round"/>
<path d="M2.5 5H17.5" stroke="#6C788F" stroke-width="2" stroke-linecap="round" stroke-linejoin="round"/>
<path d="M6.66675 5.00008V3.33341C6.66675 2.89139 6.84234 2.46746 7.1549 2.1549C7.46746 1.84234 7.89139 1.66675 8.33341 1.66675H11.6667C12.1088 1.66675 12.5327 1.84234 12.8453 2.1549C13.1578 2.46746 13.3334 2.89139 13.3334 3.33341V5.00008" stroke="#6C788F" stroke-width="2" stroke-linecap="round" stroke-linejoin="round"/>
</svg>
