<svg width="22" height="22" viewBox="0 0 22 22" fill="none" xmlns="http://www.w3.org/2000/svg">
<path d="M3.66667 7.33325H18.3333M3.66667 7.33325V15.3999C3.66667 16.4266 3.66667 16.9399 3.86651 17.3323C4.04227 17.6772 4.32272 17.9577 4.66767 18.1334C5.05909 18.3333 5.57242 18.3333 6.59726 18.3333H15.4028C16.4276 18.3333 16.94 18.3333 17.3314 18.1334C17.677 17.9574 17.9575 17.6769 18.1335 17.3323C18.3333 16.9399 18.3333 16.4284 18.3333 15.4036V7.33325M3.66667 7.33325V6.59992C3.66667 5.57325 3.66667 5.05992 3.86651 4.66759C4.04251 4.322 4.32209 4.04242 4.66767 3.86642C5.06001 3.66659 5.57334 3.66659 6.6 3.66659H7.33334M18.3333 7.33325V6.59717C18.3333 5.57234 18.3333 5.059 18.1335 4.66759C17.9575 4.3225 17.6767 4.04203 17.3314 3.86642C16.94 3.66659 16.4267 3.66659 15.4 3.66659H14.6667M7.33334 3.66659H14.6667M7.33334 3.66659V1.83325M14.6667 3.66659V1.83325" stroke="#6B768C" stroke-width="1.5" stroke-linecap="round" stroke-linejoin="round"/>
</svg>
